inDegrees=yes
name=ik_lifting_orientations
DataType=double
version=3
OpenSimVersion=4.5-2024-01-10-34fd6af
endheader
time	pelvis_tilt	pelvis_list	pelvis_rotation	pelvis_tx	pelvis_ty	pelvis_tz	hip_flexion_r	hip_adduction_r	hip_rotation_r	knee_angle_r	knee_angle_r_beta	ankle_angle_r	subtalar_angle_r	mtp_angle_r	hip_flexion_l	hip_adduction_l	hip_rotation_l	knee_angle_l	knee_angle_l_beta	ankle_angle_l	subtalar_angle_l	mtp_angle_l	lumbar_extension	lumbar_bending	lumbar_rotation	arm_flex_r	arm_add_r	arm_rot_r	elbow_flex_r	pro_sup_r	wrist_flex_r	wrist_dev_r	arm_flex_l	arm_add_l	arm_rot_l	elbow_flex_l	pro_sup_l	wrist_flex_l	wrist_dev_l
0.02	0.01891595814952737	0.01694868954624405	-90.03183493938707	0	0.9399999998679526	0	45.75619624494829	-10.78567597822845	0	61.34591771666042	1.070688246813246	-5.068637303855451	0	0	45.75619624494829	-10.78567597822845	0	61.34591771666042	1.070688246813246	-5.068637303855451	0	0	0.02601167973787207	-0.03009975128853288	0.01370854387693628	-0.3141124020225308	-0.05552955704880666	-0.009312162217036088	0.6336865902873183	0.6813581469796312	0	0	0	-9.801006653841929	0	89.36721716454096	0.6813581469796312	0	0
0.03	-0.00891040047573249	-0.01470489462101003	-90.03475023294047	0	0.9399999998679526	0	45.72524692274101	-10.68637486923412	0	61.30233982897153	1.069927669192011	-5.057872536284789	0	0	45.72524692274101	-10.68637486923412	0	61.30233982897153	1.069927669192011	-5.057872536284789	0	0	-0.01379963286157906	0.01189312150625641	0.005684398186485011	-0.2967344180177497	-0.06403777892012905	0.004998518509318273	0.6128851115700987	0.6616605895018471	0	0	0	-9.912803234657789	0	89.38550538648772	0.6616605895018471	0	0
0.04	-0.0074976539545067	0.006493289555879305	-90.02603781431759	0	0.9399999998679526	0	45.72508602950955	-10.6858423113941	0	61.30211312597185	1.069923712478242	-5.057813969242514	0	0	45.72508602950955	-10.6858423113941	0	61.30211312597185	1.069923712478242	-5.057813969242514	0	0	0.01029603885745191	0.02071488879723405	-0.000465142624760841	-0.1906719386837286	0.5142618505768154	-0.03730095464631346	0.3860066613888463	0.6615584782623192	0	0	0	-9.91338204282483	0	89.38560019178162	0.6615584782623192	0	0
0.05	-0.003378268890612848	0.001672599543839806	-90.02453037965428	0	0.9399999998679526	0	45.724884094834	-10.68517558407205	0	61.30182820734154	1.069918739710043	-5.057740697833081	0	0	45.724884094834	-10.68517558407205	0	61.30182820734154	1.069918739710043	-5.057740697833081	0	0	-0.648701728663005	0.4799219635130084	-0.4474545029784395	0.4582438606401806	0.0510037526017092	0.4096093629632576	0.3829877042140384	0.661430243639381	0	0	0	-9.914109268426945	0	89.3857192513622	0.661430243639381	0	0
0.06	-0.002892510912889688	0.006028335928445987	-90.02672822436459	0	0.9399999998679526	0	45.7246867742833	-10.68452293862484	0	61.30155026963337	1.06991388878192	-5.057668956377957	0	0	45.7246867742833	-10.68452293862484	0	61.30155026963337	1.06991388878192	-5.057668956377957	0	0	-0.6459401805176289	0.4750045280768971	-0.4432251165670235	1.140538947788638	-0.4759450574013602	0.5428874944969733	0.1851219206985868	0.6613050152875743	0	0	0	-9.914819078725865	0	89.38583551976494	0.6613050152875743	0	0
0.07000000000000001	0.000645303621003492	-0.001393582716289112	-90.02656262980464	0	0.9399999998679526	0	45.72459655156688	-10.68422398033466	0	61.30142346856661	1.06991167568581	-5.057636089969238	0	0	45.72459655156688	-10.68422398033466	0	61.30142346856661	1.06991167568581	-5.057636089969238	0	0	-0.6428620631888785	0.4762062876469081	-0.4429514362294965	1.114145779560541	-0.4847358635489163	0.542288677860597	0.1871670675269463	0.6612478010965089	0	0	0	-9.91514314711125	0	89.38588864034314	0.6612478010965089	0	0
0.08	7.916853808175588e-05	-0.0002104385838977914	-90.05377624161298	0	0.9399999998679526	0	45.72449323021608	-10.683883097388	0	61.30127774246746	1.069909132285574	-5.057598645198494	0	0	45.72449323021608	-10.683883097388	0	61.30127774246746	1.069909132285574	-5.057598645198494	0	0	-0.6477863359600263	0.4821268610451249	-0.3874783610186482	1.026468430114606	-0.449163956844485	1.076807614085159	0.206154134971049	0.6611821900944075	0	0	0	-9.915515211169847	0	89.3859495569523	0.6611821900944075	0	0
0.09	-0.0006103696089405085	0.0002064892365454165	-90.03348354302912	0	0.9399999998679526	0	45.72439391639005	-10.68355418421167	0	61.3011381691743	1.06990669627206	-5.057562494503158	0	0	45.72439391639005	-10.68355418421167	0	61.3011381691743	1.06990669627206	-5.057562494503158	0	0	-0.6417564773647695	0.4779865206177536	-0.4290400167159659	1.015688416574124	-0.451272956399969	1.098992517863886	0.2058618529080963	0.6611192080194801	0	0	0	-9.915871956663153	0	89.3860080327287	0.6611192080194801	0	0
0.1	-0.001667172545610229	0.006152382414151857	-90.02742301032033	0	0.9399999998679526	0	45.7241881369758	-10.68287560946391	0	61.30084802333388	1.069901632271834	-5.05748797980622	0	0	45.7241881369758	-10.68287560946391	0	61.30084802333388	1.069901632271834	-5.05748797980622	0	0	-1.131639386739654	-0.170342355638904	-1.120644924507116	1.512657653767383	0.2210960589284977	1.771539379125576	0.202317532011095	0.6609885387235437	0	0	0	-9.916612905314301	0	89.38612935278437	0.6609885387235437	0	0
